# xmcd CD database file
#
# Track frame offsets:
#	150
#	21235
#	42207
#
# Disc length: 841 seconds
#
# Revision: 0
# Processed by: cddbd v1.5.1PL0 Copyright (c) Steve Scherf et al.
# Submitted via: CDex 1.51
#
DISCID=1c034703
DTITLE=WANDS - WANDS - 錆びついたマシンガンで今を撃ち抜こう
DYEAR=1997
DGENRE=J-POP
TTITLE0=錆びついたマシンガンで今を撃ち抜こう
TTITLE1=Try Again
TTITLE2=錆びついたマシンガンで今を撃ち抜こう（カラオケ）
EXTD=YEAR: 1997
EXTT0=
EXTT1=
EXTT2=
PLAYORDER=
